<?xml version="1.0" standalone="no"?>
<!DOCTYPE svg PUBLIC "-//W3C//DTD SVG 20010904//EN"
 "http://www.w3.org/TR/2001/REC-SVG-20010904/DTD/svg10.dtd">
<svg version="1.0" xmlns="http://www.w3.org/2000/svg"
 width="60.000000pt" height="60.000000pt" viewBox="0 0 60.000000 60.000000"
 preserveAspectRatio="xMidYMid meet">

<g transform="translate(0.000000,60.000000) scale(0.100000,-0.100000)"
fill="#000000" stroke="none">
<path d="M200 497 c-45 -24 -108 -92 -96 -104 3 -4 21 10 38 31 33 40 96 75
136 76 12 0 22 5 22 10 0 18 -56 11 -100 -13z"/>
<path d="M320 512 c0 -6 16 -16 35 -22 70 -23 134 -103 135 -167 0 -13 5 -23
11 -23 19 0 3 78 -25 121 -14 21 -43 50 -64 63 -43 29 -92 43 -92 28z"/>
<path d="M251 481 c-44 -12 -37 -30 7 -19 91 23 185 -44 198 -142 7 -50 24
-70 24 -27 0 80 -62 166 -135 186 -44 12 -58 12 -94 2z"/>
<path d="M161 425 c-16 -19 -34 -52 -40 -72 -9 -38 -7 -160 3 -170 10 -10 18
48 12 90 -8 56 7 104 45 143 17 17 26 34 21 38 -6 3 -24 -10 -41 -29z"/>
<path d="M220 427 c-54 -36 -68 -70 -72 -180 -3 -83 -2 -96 9 -81 8 11 13 48
13 97 0 116 39 167 129 167 23 0 41 5 41 10 0 20 -86 11 -120 -13z"/>
<path d="M366 412 c47 -40 59 -71 60 -170 2 -102 9 -125 20 -67 8 47 -1 157
-17 187 -18 36 -51 68 -68 68 -13 -1 -12 -4 5 -18z"/>
<path d="M260 413 c-25 -9 -62 -46 -71 -71 -11 -28 0 -132 14 -132 6 0 7 21 3
54 -7 65 6 101 45 122 37 19 58 18 97 -6 35 -22 43 -13 13 14 -20 18 -77 29
-101 19z"/>
<path d="M260 370 c0 -5 15 -10 34 -10 50 0 61 -20 61 -114 0 -45 -4 -96 -8
-114 -5 -19 -5 -32 1 -32 5 0 15 20 21 44 22 90 8 206 -29 226 -24 13 -80 13
-80 0z"/>
<path d="M87 363 c-9 -8 -9 -96 -1 -117 13 -33 19 -14 19 54 0 67 -3 78 -18
63z"/>
<path d="M226 344 c-3 -9 -6 -46 -6 -83 0 -38 -5 -82 -11 -99 -16 -45 -4 -64
14 -22 8 20 16 75 18 128 4 87 -1 112 -15 76z"/>
<path d="M265 334 c-13 -13 -15 -28 -10 -68 4 -34 1 -68 -9 -101 -18 -58 -19
-65 -8 -65 17 0 36 78 36 150 1 68 3 75 21 75 16 0 22 -10 28 -47 5 -27 14
-48 19 -48 6 0 8 13 4 31 -3 17 -6 37 -6 45 0 17 -28 44 -45 44 -7 0 -21 -7
-30 -16z"/>
<path d="M389 346 c-3 -3 -2 -29 1 -58 3 -29 2 -80 -2 -112 -8 -58 -5 -76 10
-62 11 11 15 202 5 221 -5 8 -11 13 -14 11z"/>
<path d="M288 234 c-3 -73 3 -101 16 -68 9 25 7 132 -3 139 -5 3 -11 -28 -13
-71z"/>
<path d="M460 220 c0 -16 5 -30 10 -30 6 0 10 14 10 30 0 17 -4 30 -10 30 -5
0 -10 -13 -10 -30z"/>
<path d="M328 200 c-8 -22 -28 -96 -28 -104 0 -3 4 -6 9 -6 12 0 34 83 29 106
-4 15 -6 16 -10 4z"/>
<path d="M171 160 c-11 -33 2 -41 19 -11 12 24 13 41 1 41 -5 0 -14 -13 -20
-30z"/>
<path d="M270 119 c-13 -24 -4 -41 10 -19 10 16 13 40 5 40 -2 0 -9 -9 -15
-21z"/>
</g>
</svg>
